HIERARCHY
ROOT hip
{
	OFFSET 0.000000 0.000000 0.000000
	CHANNELS 6 Xposition Yposition Zposition Zrotation Yrotation Xrotation 
	JOINT lhipjoint
	{
		OFFSET 0.000000 0.000000 0.000000
		CHANNELS 3 Zrotation Yrotation Xrotation
		JOINT lfemur
		{
			OFFSET 1.363060 -1.794630 0.839290
			CHANNELS 3 Zrotation Yrotation Xrotation
			JOINT ltibia
			{
				OFFSET 2.448110 -6.726130 0.000000
				CHANNELS 3 Zrotation Yrotation Xrotation
				JOINT lfoot
				{
					OFFSET 2.562200 -7.039590 0.000000
					CHANNELS 3 Zrotation Yrotation Xrotation
					JOINT ltoes
					{
						OFFSET 0.157640 -0.433110 2.322550
						CHANNELS 3 Zrotation Yrotation Xrotation
						End Site
						{
							OFFSET 0.000000 0.000000 0.000000
						}
					}
				}
			}
		}
	}
	JOINT rhipjoint
	{
		OFFSET 0.000000 0.000000 0.000000
		CHANNELS 3 Zrotation Yrotation Xrotation
		JOINT rfemur
		{
			OFFSET -1.305520 -1.794630 0.839290
			CHANNELS 3 Zrotation Yrotation Xrotation
			JOINT rtibia
			{
				OFFSET -2.542530 -6.985550 0.000000
				CHANNELS 3 Zrotation Yrotation Xrotation
				JOINT rfoot
				{
					OFFSET -2.568260 -7.056230 0.000000
					CHANNELS 3 Zrotation Yrotation Xrotation
					JOINT rtoes
					{
						OFFSET -0.164730 -0.452590 2.363150
						CHANNELS 3 Zrotation Yrotation Xrotation
						End Site
						{
							OFFSET 0.000000 0.000000 0.000000
						}
					}
				}
			}
		}
	}
	JOINT lowerback
	{
		OFFSET 0.000000 0.000000 0.000000
		CHANNELS 3 Zrotation Yrotation Xrotation
		JOINT upperback
		{
			OFFSET 0.028270 2.035590 -0.193380
			CHANNELS 3 Zrotation Yrotation Xrotation
			JOINT thorax
			{
				OFFSET 0.056720 2.048850 -0.042750
				CHANNELS 3 Zrotation Yrotation Xrotation
				JOINT lowerneck
				{
					OFFSET 0.000000 0.000000 0.000000
					CHANNELS 3 Zrotation Yrotation Xrotation
					JOINT upperneck
					{
						OFFSET -0.054170 1.746240 0.172020
						CHANNELS 3 Zrotation Yrotation Xrotation
						JOINT head
						{
							OFFSET 0.104070 1.761360 -0.123970
							CHANNELS 3 Zrotation Yrotation Xrotation
							End Site
							{
								OFFSET 0.000000 0.000000 0.000000
							}
						}
					}
				}
				JOINT lclavicle
				{
					OFFSET 0.000000 0.000000 0.000000
					CHANNELS 3 Zrotation Yrotation Xrotation
					JOINT lhumerus
					{
						OFFSET 3.362410 1.200890 -0.311210
						CHANNELS 3 Zrotation Yrotation Xrotation
						JOINT lradius
						{
							OFFSET 4.983000 -0.000000 -0.000000
							CHANNELS 3 Zrotation Yrotation Xrotation
							JOINT lwrist
							{
								OFFSET 3.483560 -0.000000 -0.000000
								CHANNELS 3 Zrotation Yrotation Xrotation
								JOINT lhand
								{
									OFFSET 0.000000 0.000000 0.000000
									CHANNELS 3 Zrotation Yrotation Xrotation
									JOINT lfingers
									{
										OFFSET 0.715260 -0.000000 -0.000000
										CHANNELS 3 Zrotation Yrotation Xrotation
										End Site
										{
											OFFSET 0.000000 0.000000 0.000000
										}
									}
								}
								JOINT lthumb
								{
									OFFSET 0.000000 0.000000 0.000000
									CHANNELS 3 Zrotation Yrotation Xrotation
									End Site
									{
										OFFSET 0.000000 0.000000 0.000000
									}
								}
							}
						}
					}
				}
				JOINT rclavicle
				{
					OFFSET 0.000000 0.000000 0.000000
					CHANNELS 3 Zrotation Yrotation Xrotation
					JOINT rhumerus
					{
						OFFSET -3.136600 1.374050 -0.404650
						CHANNELS 3 Zrotation Yrotation Xrotation
						JOINT rradius
						{
							OFFSET -5.241900 -0.000000 -0.000000
							CHANNELS 3 Zrotation Yrotation Xrotation
							JOINT rwrist
							{
								OFFSET -3.444170 -0.000000 -0.000000
								CHANNELS 3 Zrotation Yrotation Xrotation
								JOINT rhand
								{
									OFFSET 0.000000 0.000000 0.000000
									CHANNELS 3 Zrotation Yrotation Xrotation
									JOINT rfingers
									{
										OFFSET -0.622530 -0.000000 -0.000000
										CHANNELS 3 Zrotation Yrotation Xrotation
										End Site
										{
											OFFSET 0.000000 0.000000 0.000000
										}
									}
								}
								JOINT rthumb
								{
									OFFSET 0.000000 0.000000 0.000000
									CHANNELS 3 Zrotation Yrotation Xrotation
									End Site
									{
										OFFSET 0.000000 0.000000 0.000000
									}
								}
							}
						}
					}
				}
			}
		}
	}
}
MOTION
Frames: 10
Frame Time: 0.008333
-3.194835 18.178922 2.740583 -173.079174 5.522961 169.634183 -2.612820 3.460254 1.795209 -6.498612 20.900780 12.123150 -0.082353 -0.797365 0.491128 0.345573 -1.369166 7.847938 0.006500 0.519800 1.428200 -0.029900 -3.960367 0.904467 22.983647 12.351853 -6.509979 -1.355790 -6.179853 20.833829 1.956761 -9.930417 5.735562 -0.423700 4.177700 -11.577300 4.368125 -4.807203 18.879915 2.156437 -2.317612 -1.200972 6.256722 0.382027 9.729116 -5.748534 -1.446649 -11.715683 -1.198499 -0.808872 8.563103 3.409400 -0.378700 4.632500 0.474421 3.823855 1.289629 -81.793620 -20.082778 59.078668 81.842271 -66.993759 -42.342977 1.316544 2.559917 100.157977 10.449612 26.429693 5.740500 -7.125000 0.000000 0.000000 -17.508400 55.028000 -4.411500 1.951569 -1.705303 2.137626 69.373895 11.557251 66.662797 -114.649311 51.138766 -69.675758 1.402273 -3.994135 -7.781305 -29.626867 0.353158 -3.057900 7.125000 0.000000 0.000000 -2.946200 -23.973800 -1.496800 
-3.190838 18.180049 2.721929 -173.083912 5.410726 169.661079 -2.607590 3.455113 1.796535 -6.509661 20.816650 12.160477 -0.082528 -0.795592 0.490097 0.349888 -1.397016 7.822349 0.004900 0.450400 1.237500 -0.028954 -3.961710 0.901483 22.843675 12.726662 -6.399553 -1.301427 -6.075721 20.517308 1.942410 -9.813827 5.452142 -0.375900 3.937800 -10.901600 4.411877 -4.838295 18.856877 2.155446 -2.348920 -1.190994 6.242432 0.379509 9.765776 -5.648198 -1.482469 -11.718108 -1.201735 -0.864265 8.508912 3.387800 -0.393800 4.598900 0.466321 3.821208 1.296992 -81.793473 -19.994059 58.962861 81.414781 -67.047530 -42.035798 1.360741 2.470623 100.385044 11.082888 25.781337 5.834800 -7.125000 0.000000 0.000000 -16.574000 54.457500 -3.933000 1.990563 -1.681962 2.152208 68.683292 11.052776 65.857021 -115.095962 51.013516 -70.279827 1.266123 -3.956327 -6.250163 -29.629361 1.013236 -3.385900 7.125000 0.000000 0.000000 -2.888700 -23.323000 -1.510900 
-3.186533 18.180972 2.703480 -173.099259 5.275195 169.681402 -2.601543 3.450058 1.800895 -6.533588 20.713095 12.207799 -0.082731 -0.793571 0.488878 0.353005 -1.414755 7.801511 0.004500 0.431000 1.184200 -0.026922 -3.964553 0.900500 22.693632 13.126597 -6.261998 -1.249985 -5.973516 20.204326 1.942456 -9.763212 5.156766 -0.342500 3.760600 -10.404000 4.456723 -4.872282 18.862428 2.153310 -2.386918 -1.190074 6.214068 0.372807 9.752029 -5.544669 -1.514492 -11.683565 -1.184487 -0.920088 8.463270 3.375200 -0.409700 4.566500 0.457655 3.811587 1.300477 -81.782945 -19.819534 58.802401 81.304580 -67.073399 -41.951183 1.414866 2.401794 100.894231 11.577325 25.348498 5.919600 -7.125000 0.000000 0.000000 -15.883600 54.074500 -3.612600 2.017694 -1.657107 2.167133 68.134037 10.609266 64.965391 -115.468288 50.923571 -70.755326 1.116122 -3.930764 -4.513895 -29.521651 1.812232 -3.781900 7.125000 0.000000 0.000000 -2.735900 -22.510800 -1.481600 
-3.182229 18.180664 2.683289 -173.099925 5.151329 169.674949 -2.595255 3.447140 1.803234 -6.522149 20.625084 12.300505 -0.082676 -0.791797 0.487406 0.358146 -1.448976 7.772827 0.003600 0.389500 1.070100 -0.026787 -3.966648 0.897633 22.568844 13.474805 -6.113792 -1.201647 -5.876029 19.910984 1.933632 -9.675521 4.861545 -0.329400 3.688900 -10.203100 4.515599 -4.920247 18.881418 2.153624 -2.427628 -1.179152 6.191367 0.368504 9.769377 -5.439472 -1.552280 -11.655260 -1.203549 -0.973778 8.380155 3.345600 -0.422800 4.512100 0.446854 3.811889 1.305060 -81.781813 -19.636730 58.572794 81.552021 -67.072576 -42.112631 1.483448 2.347169 101.623408 12.008686 25.050713 6.011000 -7.125000 0.000000 0.000000 -15.308200 53.807800 -3.376100 2.054375 -1.632949 2.185101 67.560838 10.251678 64.095912 -116.022281 50.759610 -71.483435 0.979026 -3.880774 -2.906225 -29.502080 2.549248 -4.142900 7.125000 0.000000 0.000000 -2.653000 -21.782400 -1.480600 
-3.177514 18.180972 2.662072 -173.122604 5.016327 169.699699 -2.589436 3.442649 1.807336 -6.548913 20.525920 12.357456 -0.082847 -0.790082 0.486063 0.361814 -1.472480 7.741206 0.004000 0.407400 1.119400 -0.024987 -3.967876 0.896118 22.427561 13.781609 -6.021782 -1.156555 -5.785566 19.635724 1.924044 -9.594087 4.608079 -0.330400 3.694000 -10.217300 4.555975 -4.958652 18.868294 2.152936 -2.472906 -1.177069 6.168973 0.357035 9.757893 -5.341390 -1.588090 -11.585452 -1.205623 -1.028690 8.312409 3.325500 -0.438000 4.457800 0.431175 3.803253 1.302372 -81.729446 -19.387169 58.323101 82.228485 -67.024647 -42.567329 1.555954 2.317155 102.409290 12.271594 24.924418 6.080900 -7.125000 0.000000 0.000000 -14.961400 53.684300 -3.251300 2.087778 -1.604257 2.201684 67.049851 9.842167 63.191278 -116.794642 50.505347 -72.517842 0.868352 -3.807186 -1.628944 -29.603558 3.217568 -4.477600 7.125000 0.000000 0.000000 -2.662600 -21.135900 -1.525000 
-3.171057 18.180972 2.639729 -173.123556 4.869377 169.708978 -2.581967 3.437783 1.810572 -6.540075 20.412176 12.441980 -0.082961 -0.787557 0.484387 0.368241 -1.515088 7.700072 0.002800 0.343400 0.943500 -0.023316 -3.968159 0.893849 22.340809 13.944619 -5.957878 -1.115718 -5.701194 19.379742 1.910890 -9.514071 4.475629 -0.381100 3.964600 -10.977000 4.618896 -5.001344 18.864748 2.152082 -2.512109 -1.168522 6.126971 0.354400 9.773183 -5.211558 -1.638204 -11.559941 -1.221607 -1.103132 8.235939 3.290200 -0.460800 4.409000 0.415296 3.797299 1.296376 -81.656637 -19.132332 58.023374 83.186899 -66.933748 -43.225335 1.635539 2.300287 103.222078 12.492039 24.909406 6.164900 -7.125000 0.000000 0.000000 -14.691900 53.659800 -3.181800 2.124990 -1.575286 2.221615 66.616742 9.454517 62.221829 -117.670636 50.192915 -73.734023 0.796215 -3.723524 -0.813670 -30.020751 3.738309 -4.796600 7.125000 0.000000 0.000000 -2.912500 -20.613200 -1.702800 
-3.164600 18.181074 2.616668 -173.143083 4.722458 169.720300 -2.574982 3.433260 1.815044 -6.552075 20.302580 12.522492 -0.083076 -0.785519 0.482793 0.372888 -1.545369 7.664171 0.002700 0.333800 0.917100 -0.020400 -3.968585 0.892460 22.239462 14.112125 -5.908289 -1.079604 -5.625345 19.145069 1.910177 -9.494620 4.365668 -0.435600 4.235100 -11.739000 4.671944 -5.039049 18.868799 2.150197 -2.550928 -1.165755 6.077843 0.349487 9.757549 -5.064903 -1.691103 -11.504622 -1.261001 -1.180853 8.149951 3.238200 -0.486500 4.348600 0.399782 3.786837 1.287291 -81.555499 -18.819273 57.672860 84.309473 -66.795488 -44.022732 1.703624 2.313482 103.883529 12.568499 25.131483 6.259500 -7.125000 0.000000 0.000000 -14.657800 53.856600 -3.245300 2.160505 -1.541746 2.244881 66.245292 9.054540 61.231443 -118.626929 49.823727 -75.110127 0.770567 -3.629477 -0.556854 -30.849964 4.030307 -5.080300 7.125000 0.000000 0.000000 -3.479800 -20.290700 -2.060900 
-3.157528 18.179742 2.592582 -173.167625 4.584724 169.720662 -2.570224 3.430714 1.819933 -6.556992 20.203457 12.619530 -0.083083 -0.784006 0.481046 0.380404 -1.600249 7.605372 0.001600 0.261500 0.718600 -0.020099 -3.967703 0.890300 22.148027 14.249673 -5.866137 -1.047435 -5.557208 18.937624 1.903482 -9.448923 4.262970 -0.506000 4.560100 -12.658000 4.696428 -5.079678 18.885654 2.155817 -2.586355 -1.162133 6.092239 0.337390 9.747423 -4.997876 -1.748502 -11.445824 -1.291673 -1.253964 8.069307 3.206900 -0.513100 4.291200 0.384607 3.778293 1.278918 -81.513055 -18.517775 57.250203 85.501596 -66.616810 -44.896009 1.751924 2.360088 104.355957 12.477814 25.555267 6.348200 -7.125000 0.000000 0.000000 -14.874600 54.244200 -3.437100 2.197495 -1.513848 2.268263 65.910699 8.683758 60.242002 -119.596949 49.423453 -76.558350 0.784927 -3.524270 -0.800328 -32.137796 4.073117 -5.323800 7.125000 0.000000 0.000000 -4.400300 -20.185800 -2.619300 
-3.148816 18.177487 2.567368 -173.187400 4.420914 169.736281 -2.563827 3.426802 1.825395 -6.566091 20.074217 12.704032 -0.083255 -0.780958 0.479109 0.384661 -1.626568 7.561595 0.001000 0.208100 0.571700 -0.019279 -3.966758 0.887364 22.069298 14.412689 -5.810045 -1.019039 -5.495108 18.750224 1.904246 -9.429699 4.095219 -0.550100 4.751600 -13.201300 4.730462 -5.121030 18.880652 2.160578 -2.625369 -1.157887 6.076342 0.326129 9.750972 -4.869655 -1.815291 -11.406410 -1.349132 -1.343017 7.974137 3.146200 -0.545600 4.228200 0.373581 3.773635 1.269622 -81.453064 -18.185933 56.759021 86.744440 -66.389229 -45.843870 1.774058 2.436177 104.636876 12.168985 26.146198 6.395300 -7.125000 0.000000 0.000000 -15.397600 54.783700 -3.766900 2.230739 -1.486666 2.295412 65.753998 8.379433 59.183422 -120.511785 49.013954 -77.976249 0.828600 -3.412717 -1.471204 -33.867102 3.915843 -5.546800 7.125000 0.000000 0.000000 -5.656300 -20.236500 -3.366900 
-3.137336 18.175847 2.539695 -173.227883 4.222120 169.735285 -2.555967 3.422044 1.831316 -6.589516 19.913978 12.810075 -0.083439 -0.777423 0.476765 0.389753 -1.657711 7.519525 0.000200 0.083200 0.228700 -0.018897 -3.964917 0.885611 21.979524 14.512184 -5.733833 -0.992997 -5.438857 18.580910 1.899969 -9.389279 3.925285 -0.600500 4.960800 -13.796700 4.725349 -5.168053 18.876028 2.165632 -2.675856 -1.153651 6.077883 0.304814 9.766116 -4.766501 -1.883247 -11.386886 -1.391855 -1.432731 7.893713 3.096400 -0.579600 4.177900 0.364255 3.770992 1.262570 -81.457083 -17.847899 56.186222 87.927315 -66.136286 -46.789290 1.764893 2.540780 104.735513 11.642319 26.888002 6.389300 -7.125000 0.000000 0.000000 -16.240000 55.459500 -4.250800 2.258004 -1.466267 2.321750 65.713367 8.124785 58.123148 -121.340142 48.610995 -79.310051 0.884825 -3.287161 -2.445351 -36.023854 3.632590 -5.775500 7.125000 0.000000 0.000000 -7.227200 -20.367400 -4.293900 
